<?xml version="1.0" encoding="utf-8"?>
<!-- Generator: Adobe Illustrator 24.0.2, SVG Export Plug-In . SVG Version: 6.00 Build 0)  -->
<svg version="1.1" xmlns="http://www.w3.org/2000/svg" xmlns:xlink="http://www.w3.org/1999/xlink" x="0px" y="0px"
	 viewBox="0 0 141.7 141.7" style="enable-background:new 0 0 141.7 141.7;" xml:space="preserve">
<style type="text/css">
	.st0{display:none;}
	.st1{display:inline;}
	.st2{fill:#3F479D;}
	.st3{fill:#FFFFFF;}
	.st4{display:inline;fill:#FFFFFF;stroke:#FFFFFF;stroke-miterlimit:10;}
	.st5{display:inline;fill:#28256F;stroke:#FFFFFF;stroke-miterlimit:10;}
	.st6{display:inline;fill:#3F479D;stroke:#FFFFFF;stroke-width:6;stroke-miterlimit:10;}
	.st7{display:inline;fill:#3F479D;stroke:#FFFFFF;stroke-width:4;stroke-miterlimit:10;}
	.st8{display:inline;fill:#3F479D;stroke:#FFFFFF;stroke-width:3;stroke-miterlimit:10;}
	.st9{display:inline;fill:#28256F;stroke:#FFFFFF;stroke-width:3;stroke-miterlimit:10;}
	.st10{fill:#3F479D;stroke:#FFFFFF;stroke-width:4;stroke-miterlimit:10;}
	.st11{fill:#FFFFFF;stroke:#FFFFFF;stroke-width:2;stroke-miterlimit:10;}
	.st12{stroke:#FFFFFF;stroke-width:5;stroke-miterlimit:10;}
	.st13{stroke:#FFFFFF;stroke-width:2;stroke-miterlimit:10;}
	.st14{display:inline;fill:#3F479D;stroke:#FFFFFF;stroke-width:2;stroke-miterlimit:10;}
	.st15{display:inline;fill:none;stroke:#FFFFFF;stroke-width:6;stroke-miterlimit:10;}
	.st16{display:inline;fill:#3F479D;}
	.st17{display:inline;fill:#FFFFFF;}
	.st18{display:inline;fill:none;stroke:#3F479D;stroke-width:6;stroke-miterlimit:10;}
	.st19{display:inline;fill:none;stroke:#3F479D;stroke-width:5;stroke-miterlimit:10;}
</style>
<g id="Livello_1" class="st0">
	
		<image style="display:inline;overflow:visible;" width="1454" height="1274" xlink:href="tbg_new/ICONE_TBG/Schermata 2019-10-01 alle 22.40.01.png"  transform="matrix(0.5 0 0 0.5 27.7135 -278.5632)">
	</image>
</g>
<g id="MOTORI" class="st0">
	<g class="st1">
		<polyline class="st2" points="5,133.6 44.5,14.6 48.3,18.6 54.9,22.1 63.1,24.7 73.7,26.1 84.5,26.8 97.2,27.8 107.3,28.2 
			114.4,29.2 122.4,31.5 129.4,34.6 135.1,37.4 138.1,41.4 114.2,114.8 109.2,110.1 103.1,106.6 95.6,104.7 87.6,103.5 76.5,103.1 
			64.5,102.4 53.2,101.2 44.5,99.1 33.7,94.4 25.5,89.2 21.1,85.6 		"/>
		<g>
			<path class="st3" d="M7.4,134.3c1.3-3.9,2.6-7.9,3.9-11.8c3.1-9.5,6.3-19,9.4-28.4c3.8-11.5,7.6-22.9,11.4-34.4
				c3.3-9.9,6.6-19.8,9.9-29.7c1.1-3.3,2.2-6.5,3.3-9.8c0.5-1.5,1.1-3.1,1.5-4.6c0-0.1,0-0.1,0.1-0.2c-1.4,0.4-2.8,0.7-4.2,1.1
				c1.2,1.3,2.3,2.6,3.6,3.8c1.1,1.1,2.7,1.7,4,2.4c1.3,0.7,2.7,1.6,4.1,2.1c1.8,0.6,3.7,1.2,5.5,1.7c1.2,0.4,2.4,0.8,3.7,0.9
				c1.9,0.3,3.8,0.5,5.8,0.8c2.9,0.4,5.6,0.7,8.5,0.8c6.4,0.4,12.9,1,19.3,1.4c3.3,0.2,6.5,0.2,9.8,0.5c1.3,0.1,2.7,0.3,4,0.5
				c1,0.1,1.9,0.3,2.9,0.4c0.2,0,0.9,0,0.2,0c-0.6,0,0,0,0.2,0.1c1.9,0.6,3.9,1.1,5.8,1.7c0.4,0.1,0.8,0.2,1.1,0.3
				c0.2,0.1,0.8,0.3,0.2,0c-0.6-0.3,0,0,0.1,0.1c0.4,0.2,0.8,0.3,1.2,0.5c3.2,1.4,6.3,2.8,9.4,4.3c0.6,0.3,1.2,0.6,1.7,0.9
				c-0.3-0.3-0.6-0.6-0.9-0.9c1,1.3,2,2.7,3.1,4c-0.1-0.6-0.2-1.3-0.3-1.9c-2.7,8.3-5.4,16.5-8.1,24.8c-4.3,13.2-8.6,26.3-12.9,39.5
				c-1,3-2,6.1-3,9.1c1.4-0.4,2.8-0.7,4.2-1.1c-1.3-1.3-2.7-2.5-4-3.8c-1.1-1.1-2.3-1.8-3.7-2.6c-1.4-0.8-3-2-4.6-2.5
				c-1.9-0.6-3.8-1-5.7-1.4c-6.7-1.7-13.5-1.8-20.3-2.1c-6.1-0.3-12.2-0.7-18.2-1.3c-1.9-0.2-3.9-0.4-5.8-0.6
				c-0.7-0.1,0.2-0.1,0.3,0.1c-0.1-0.1-0.5-0.1-0.6-0.2c-1-0.2-1.9-0.5-2.9-0.7c-1.2-0.3-2.3-0.6-3.5-0.8c-0.2-0.1-1.5-0.6-1.7-0.4
				c0.1-0.1,0.9,0.4,0.3,0.1c-0.3-0.1-0.6-0.3-0.9-0.4c-1-0.4-1.9-0.8-2.9-1.3c-2.9-1.3-5.8-2.4-8.5-4c-1.9-1.2-3.7-2.3-5.6-3.5
				c-0.2-0.1-0.5-0.3-0.7-0.4c-0.4-0.2,0.7,0.6,0.2,0.2c-0.8-0.6-1.6-1.3-2.3-1.9c-0.6-0.5-1.2-1-1.8-1.5c-1-0.8-2.5-1-3.5,0
				c-0.9,0.9-1.1,2.7,0,3.5c1.4,1.1,2.8,2.2,4.1,3.4c1.2,0.9,2.5,1.7,3.8,2.5c1.7,1,3.3,2.2,5,3.1c1,0.6,2.1,0.9,3.1,1.4
				c2.1,0.9,4.2,1.8,6.3,2.7c1.1,0.5,2.1,0.9,3.3,1.2c3.3,0.8,6.5,1.8,9.8,2.1c7.1,0.7,14.2,1.3,21.4,1.7c3.3,0.2,6.6,0.3,9.9,0.4
				c0.4,0,0.7,0,1.1,0c0.2,0,0.8,0.1,0.1,0c-0.7-0.1,0,0,0.2,0c0.4,0.1,0.9,0.1,1.3,0.2c2,0.3,4.1,0.5,6.1,0.9
				c1.5,0.3,2.9,0.7,4.4,1.1c0.9,0.2,1.9,0.5,2.8,0.7c0.8,0.2-0.1,0.1-0.1-0.1c0,0.1,0.6,0.4,0.7,0.4c1.7,1,3.4,2.2,5.2,3
				c0.6,0.3-0.6-0.6-0.2-0.2c0.2,0.3,0.5,0.5,0.8,0.8c0.8,0.8,1.7,1.6,2.5,2.4c0.5,0.5,1,1,1.5,1.4c1.4,1.3,3.6,0.7,4.2-1.1
				c1-3.2,2.1-6.4,3.1-9.6c2.4-7.3,4.8-14.7,7.2-22c2.6-8,5.2-16,7.9-24c1.7-5.3,3.5-10.6,5.2-15.9c0.5-1.5,1.1-2.7,0-4.1
				c-0.6-0.8-1.2-1.5-1.7-2.3c-0.5-0.7-1-1.5-1.7-2c-1.3-1-3-1.6-4.5-2.3c-5.4-2.7-11-4.8-16.8-6.3c-1.2-0.3-2.6-0.4-3.9-0.6
				c-1.4-0.2-2.8-0.4-4.2-0.6c-3.2-0.3-6.5-0.3-9.8-0.5C92.2,25,87,24.5,81.7,24.2c-2.8-0.2-5.7-0.2-8.5-0.6
				c-3.3-0.4-6.6-0.9-10-1.3c-0.4-0.1,0.8,0.2,0.4,0c-0.2-0.1-0.5-0.2-0.8-0.2c-0.9-0.3-1.8-0.6-2.7-0.8c-1-0.3-2-0.6-2.9-0.9
				c-0.5-0.2-1.2-0.5-1.7-0.5c0,0,0.8,0.4,0.3,0.1c-0.3-0.2-0.6-0.3-0.9-0.5c-0.9-0.5-1.8-1-2.7-1.4c-0.8-0.4-1.5-0.9-2.3-1.2
				c-0.2-0.1-0.7-0.4-0.2,0c0.6,0.4-0.1-0.2-0.2-0.3c-1.1-1.2-2.2-2.3-3.3-3.5c-1.4-1.4-3.6-0.6-4.2,1.1c-1.3,3.9-2.6,7.9-3.9,11.8
				c-3.1,9.5-6.3,19-9.4,28.4c-3.8,11.5-7.6,22.9-11.4,34.4c-3.3,9.9-6.6,19.8-9.9,29.7c-1.6,4.8-3.4,9.6-4.8,14.4
				c0,0.1,0,0.1-0.1,0.2C1.6,136,6.4,137.3,7.4,134.3L7.4,134.3z"/>
		</g>
	</g>
	<polygon class="st4" points="51.2,71.5 44.4,96.2 67.7,101.7 74.5,74.7 	"/>
	<polygon class="st4" points="82.3,50.5 74.5,74.7 98.7,76.6 107,51.9 	"/>
	<polygon class="st4" points="51.2,71.5 29.3,61 38.4,35.4 59.4,46.9 	"/>
	<polygon class="st4" points="65.8,26.3 59.4,46.9 82.3,50.5 87.8,28.1 	"/>
	<polygon class="st4" points="114.4,29.2 107,51.9 129.8,62.9 138.1,41.4 	"/>
	<polygon class="st4" points="91,101.7 98.7,76.6 122.5,85.7 114.2,114.8 	"/>
</g>
<g id="MOTOGP" class="st0">
	<g class="st1">
		<polygon class="st2" points="127,40.2 130.2,45.5 134.1,52.8 136.8,59.6 137.7,67.9 137.7,78.8 136.3,87.1 133.1,95.6 
			129.5,102.8 126.1,107.9 121.5,111.6 13.9,128.6 8.5,127.6 4.9,124.2 3,119.4 2.7,114.3 5.6,103.3 21.9,50.4 25.3,43.4 30.9,34.9 
			36.5,28.8 42.5,23.4 51,18.6 59.3,14.5 68.8,12 77.3,11.8 87,11.8 96,12.8 104.7,15.4 114.2,19.1 121.7,22.7 128.7,28.5 
			134.1,33.9 135.3,35.8 		"/>
		<g>
			<path class="st3" d="M124.9,41.5c1.1,1.9,2.4,3.9,3.4,5.8c0.8,1.5,1.6,3,2.4,4.4c0.3,0.6,0.7,1.2,1,1.9c0.1,0.1,0.1,0.4,0.2,0.5
				c-0.1-0.1-0.3-0.9-0.1-0.3c0.6,1.5,1.2,3,1.8,4.5c0.2,0.6,0.4,1.2,0.7,1.8c0.2,0.4,0,0.1,0-0.4c0,0.2,0,0.4,0.1,0.5
				c0.3,2.6,0.8,5.2,0.9,7.8c0.1,3.1,0,6.1,0,9.2c0,0.5-0.1,1,0,1.4c0,0.4-0.1,0,0.1-0.5c-0.1,0.2-0.1,0.4-0.1,0.5
				c-0.3,1.6-0.6,3.3-0.9,4.9c-0.2,1-0.3,2-0.5,2.9c-0.4,1.3-1,2.6-1.4,3.8c-0.5,1.4-1.1,2.9-1.6,4.3c-0.3,0.8,0.4-0.8,0,0
				c-0.3,0.6-0.6,1.3-1,1.9c-0.8,1.6-1.5,3.2-2.4,4.8c-0.6,1.1-1.4,2.1-2.1,3.2c-0.5,0.7-1,1.4-1.4,2.1c-0.3,0.5,0.5-0.4,0.2-0.3
				c-0.2,0.1-0.6,0.5-0.8,0.6c-1.2,1-2.5,2-3.7,3c0.4-0.2,0.7-0.4,1.1-0.6c-3.6,0.6-7.2,1.1-10.7,1.7c-8.6,1.4-17.1,2.7-25.7,4.1
				c-10.3,1.6-20.7,3.3-31,4.9c-8.9,1.4-17.9,2.8-26.8,4.2c-4.3,0.7-8.8,1.2-13.1,2.1c-0.1,0-0.1,0-0.2,0c0.4,0,0.9,0,1.3,0
				c-1.8-0.3-3.6-0.6-5.3-1c0.4,0.2,0.7,0.4,1.1,0.6c-1.2-1.1-2.4-2.3-3.6-3.4c0.2,0.4,0.4,0.7,0.6,1.1c-0.3-0.8-0.6-1.6-1-2.4
				c-0.2-0.5-0.4-1-0.6-1.5c-0.1-0.2-0.1-0.4-0.2-0.6c-0.1-0.2-0.1-0.5-0.1,0c0,0.8,0-0.3,0-0.5c0-0.6-0.1-1.2-0.1-1.8
				c0-0.6-0.1-1.1-0.1-1.7c0-0.2,0-0.4,0-0.6c-0.1-0.4,0,0.4-0.1,0.5c0.3-0.4,0.4-1.3,0.5-1.8c0.3-1.1,0.6-2.3,0.9-3.4
				c0.5-1.9,1-3.8,1.5-5.6C9.6,98.7,11.3,93.4,13,88c2.9-9.4,5.8-18.8,8.7-28.2c0.8-2.7,1.6-5.3,2.5-8c0.1-0.2,0.2-0.4,0.2-0.7
				c0-0.1,0.2-0.4-0.1,0.2c-0.3,0.7,0.1-0.2,0.2-0.4c1-2,1.9-4,2.9-5.9c0.6-1.2,1.4-2.3,2.1-3.4c1.2-1.8,2.4-3.5,3.5-5.3
				c0.3-0.5,0.1,0-0.2,0.2c0.2-0.1,0.4-0.5,0.6-0.7c0.8-0.8,1.5-1.7,2.3-2.5c1-1.1,1.9-2.2,3-3.1c1.7-1.5,3.3-2.9,5-4.4
				c0.2-0.2,0.5-0.4,0.7-0.6c0.1-0.1-0.8,0.5-0.2,0.2c0.8-0.4,1.6-0.9,2.4-1.4c3.1-1.8,6.2-3.5,9.4-5.1c1.1-0.5,2.1-1.1,3.2-1.6
				c0.4-0.2,0.7-0.3,1.1-0.5c0.7-0.4,0,0.1-0.2,0c0.3,0.2,1.6-0.4,2-0.5c1.2-0.3,2.4-0.6,3.6-0.9c1.1-0.3,2.1-0.5,3.2-0.8
				c0.2-0.1,0.5-0.1,0.7-0.2c-0.1,0-1,0.1-0.2,0.1c2.2,0,4.4-0.1,6.6-0.2c3.5-0.1,6.9,0,10.4,0c3.2,0,6.5,0.7,9.7,1
				c0.1,0-0.9-0.2-0.3,0c0.3,0.1,0.7,0.2,1.1,0.3c1.1,0.3,2.3,0.7,3.4,1c1.4,0.4,2.8,0.8,4.2,1.3c2,0.7,4,1.5,6,2.3
				c0.9,0.4,1.8,0.7,2.7,1.1c0.1,0.1,0.3,0.2,0.5,0.2c-0.9-0.1-0.6-0.3-0.1,0c2,1,4,2,6.1,2.9c0.3,0.1,0.6,0.3,0.8,0.4
				c0.5,0.1-0.7-0.6-0.2-0.2c0.7,0.6,1.4,1.2,2.1,1.8c1.6,1.3,3.2,2.5,4.7,3.9c1.3,1.1,2.5,2.4,3.7,3.7c0.5,0.5,1.1,1.4,1.7,1.7
				c0.2,0.1-0.4-0.6-0.3-0.4c0.1,0.2,0.3,0.4,0.4,0.7c0.2,0.4,0.5,0.8,0.7,1.2c0.3-1.1,0.6-2.3,0.9-3.4c-2.8,1.5-5.5,2.9-8.3,4.4
				c-2.8,1.5-0.3,5.8,2.5,4.3c2.8-1.5,5.5-2.9,8.3-4.4c1.2-0.6,1.6-2.3,0.9-3.4c-0.9-1.5-1.8-2.7-3.1-3.9c-1.3-1.3-2.5-2.6-3.9-3.9
				c-1.3-1.2-2.8-2.3-4.2-3.5c-1.1-0.9-2.3-2.1-3.6-2.9c-3-1.6-6.1-3.1-9.3-4.3c-3.2-1.2-6.4-2.6-9.6-3.6c-2.2-0.7-4.3-1.3-6.5-2
				c-1.3-0.4-2.7-0.4-4.1-0.6c-2-0.2-4-0.5-6-0.7c-1.4-0.1-2.9,0-4.4,0c-3.5,0-7,0-10.5,0.1c-1.5,0-3.1-0.1-4.6,0.3
				c-2.1,0.5-4.2,1.1-6.2,1.6c-1.3,0.3-2.7,0.6-3.9,1.2c-2,1-4,2-6,3c-3.1,1.5-6,3.3-9,5c-1.2,0.7-2.1,1.4-3.2,2.3
				c-1.6,1.4-3.2,2.7-4.7,4.1c-1.1,1.1-2.2,2.3-3.2,3.5c-1,1.1-2.2,2.2-3,3.4c-1.2,1.7-2.3,3.5-3.4,5.2c-0.7,1.1-1.5,2.2-2.1,3.3
				c-1,1.9-1.9,3.9-2.8,5.8c-0.3,0.7-0.6,1.3-0.8,2c-2.1,6.7-4.1,13.4-6.2,20.2C10.4,79.2,7.7,88,5,96.9c-1.6,5.2-3,10.3-4.4,15.5
				c-0.4,1.5-0.4,2.8-0.3,4.4c0,0.8,0,1.7,0.1,2.5c0.1,0.9,0.5,1.8,0.9,2.6c0.4,0.9,0.7,1.9,1.1,2.8c0.4,1,1,1.5,1.8,2.2
				c0.8,0.7,1.6,1.5,2.4,2.2c0.8,0.7,1.4,0.8,2.4,1c1.7,0.3,3.8,1,5.6,0.8c0.3,0,0.6-0.1,0.9-0.1c1.8-0.3,3.6-0.6,5.5-0.9
				c7.3-1.1,14.5-2.3,21.8-3.4c9.8-1.5,19.5-3.1,29.3-4.6c9.4-1.5,18.9-3,28.3-4.5c6.2-1,12.4-2,18.6-2.9c1-0.2,2.1-0.2,3.1-0.5
				c0.6-0.2,1.2-0.7,1.7-1.1c0.9-0.7,1.8-1.4,2.7-2.1c0.6-0.5,1.3-0.9,1.8-1.6c0.5-0.7,1-1.5,1.5-2.2c0.8-1.2,1.7-2.4,2.3-3.7
				c1-2,2-3.9,3-5.9c0.7-1.3,1.1-2.7,1.6-4.1c0.7-1.8,1.5-3.6,2-5.5c0.4-1.5,0.6-3.2,0.9-4.8c0.3-1.5,0.7-3,0.7-4.5
				c0.1-2.1,0-4.2,0-6.2c0-1.5,0.1-2.9,0-4.4c-0.1-2-0.5-4-0.7-6c-0.2-1.5-0.3-2.8-0.9-4.2c-0.7-1.8-1.4-3.6-2.1-5.5
				c-0.7-1.7-1.7-3.4-2.6-5c-1.5-2.8-3.1-5.5-4.7-8.2C127.6,36.2,123.2,38.7,124.9,41.5z"/>
		</g>
	</g>
	<g class="st1">
		<path class="st2" d="M21.2,56.2l9.5,0.7l10.9,1.2l9.7,1.9l5.8,1l3.4,1.5l2.7,2.4l1.7,5.6v7l-1,5.1L62,86.3l-2.7,2.4l-5.1,2.2
			l-13.6,1.5l-15.5,1.7l-9.5,1.2c0,0-6.8-0.7-6.8,1"/>
		<g>
			<path class="st3" d="M21.2,58.1c4.8,0.4,9.5,0.7,14.3,1.3c1.6,0.2,3.2,0.4,4.8,0.5c0.4,0,0.8,0.2,1.2,0.1c-0.6,0-0.4-0.1,0.2,0.1
				c2.9,0.6,5.8,1.2,8.8,1.8c0.8,0.2,1.5,0.3,2.3,0.4c0.9,0.1,1.7,0.3,2.6,0.4c0.2,0,2,0.3,0.9,0c0.6,0.2,1.2,0.5,1.8,0.8
				c0.3,0.1,0.7,0.3,1,0.4c0.3,0.1,0.9,0.5,0.2,0c0.5,0.4,0.9,0.9,1.4,1.3c0.3,0.3,0.6,0.6,0.9,0.8c0.7,0.5-0.1,0.2-0.1-0.5
				c0,0.4,0.3,1,0.4,1.4c0.3,0.9,0.5,1.7,0.8,2.6c0.1,0.2,0.2,1.4,0.5,1.5c-0.1-0.1,0-0.7-0.1-0.3c0,0.2,0,0.5,0,0.8
				c0,1.6,0,3.3,0,4.9c0,0.3,0,0.5,0,0.8c0,0.7-0.1-0.1,0.1-0.1c0,0-0.3,1.5-0.3,1.6c-0.2,0.9-0.3,1.8-0.5,2.7
				c0,0.2-0.2,0.5-0.1,0.7c0-0.2,0.3-0.6,0,0c-0.5,0.8-0.9,1.7-1.3,2.5c-0.1,0.2-0.4,0.6-0.4,0.8c0-0.1,0.4-0.3,0.2-0.3
				c-0.1,0-0.4,0.3-0.4,0.4c-0.6,0.6-1.3,1.2-2,1.8c-0.4,0.4,0.2,0,0,0c-0.1,0-0.6,0.3-0.8,0.3c-1.4,0.6-2.8,1.2-4.2,1.8
				c0.3-0.1,0.6-0.2,0.9-0.3c-5.6,0.6-11.3,1.2-16.9,1.8c-6.8,0.7-13.6,1.5-20.4,2.4c-3,0.4-9.6-1.3-10,3c-0.2,2.4,3.5,2.4,3.8,0
				c0,0.1-0.5,1.2-0.5,1c0-0.1-0.2,0,0,0c0.3,0,0.6-0.2,0.8-0.2c0.3,0,1.2-0.1,1.8-0.1c0.9,0,1.9,0.2,2.8,0.2c2.1,0,4.2-0.5,6.3-0.8
				c3.8-0.5,7.7-0.9,11.6-1.3c3.6-0.4,7.2-0.8,10.8-1.2c2.7-0.3,5.5-0.6,8.2-0.9c0.6-0.1,1.2-0.1,1.8-0.2c1-0.1,2.1-0.7,3.1-1.2
				c1-0.4,2.1-0.7,3-1.3c0.9-0.6,1.8-1.5,2.6-2.3c0.7-0.7,1.1-1.4,1.6-2.3c0.5-0.9,1.1-1.8,1.4-2.7c1.1-4,1.3-8.4,1-12.5
				c-0.1-1-0.5-2-0.8-2.9c-0.3-1-0.6-2.1-0.9-3.1c-0.4-1.1-1.6-1.9-2.4-2.6c-0.8-0.7-1.4-1.1-2.4-1.5c-0.9-0.4-1.8-0.9-2.7-1.1
				c-1.2-0.3-2.5-0.4-3.7-0.6c-1.6-0.3-3.3-0.6-4.9-0.9c-2.2-0.4-4.5-1-6.7-1.3c-2-0.3-4-0.5-6-0.7c-4.2-0.5-8.5-0.8-12.7-1.2
				c-0.7-0.1-1.5-0.1-2.2-0.2C18.8,54.2,18.8,57.9,21.2,58.1L21.2,58.1z"/>
		</g>
	</g>
	<line class="st5" x1="75.3" y1="72" x2="88.9" y2="71.5"/>
	<line class="st5" x1="75.1" y1="80.3" x2="88.4" y2="79"/>
</g>
<g id="F1" class="st0">
	<circle class="st6" cx="70.6" cy="70.7" r="66.6"/>
	<circle class="st7" cx="71.4" cy="70.7" r="51.9"/>
	<polyline class="st8" points="21.4,55 33.5,64.9 43.1,64.9 51.5,64 57,61.2 62.6,56.9 67.3,55.3 73.8,55.3 78.4,56.6 83.7,59.4 
		88.3,61.8 95.7,63.1 103.5,64.6 108.8,64 113.4,61.2 116.5,58.1 119.6,54.7 	"/>
	<polyline class="st8" points="22,85.1 26.7,81.7 31,77.6 35.7,76.4 42.5,76.7 48.7,77.9 57.7,81.7 59.8,87.2 61.4,94.4 62.3,100.5 
		63.5,108.3 79.4,108 79.3,101.8 79.6,95.6 80.9,89.7 82.4,83.8 85.8,80.1 90.5,77.9 96.7,76.7 104.7,75.8 108.6,76.7 111.9,78.9 
		116.2,82.9 120.2,87.9 	"/>
	<circle class="st8" cx="71.8" cy="71.3" r="8.2"/>
	<line class="st9" x1="33.5" y1="76.1" x2="33.5" y2="64.9"/>
	<line class="st9" x1="108.6" y1="76.7" x2="108.8" y2="64"/>
	<line class="st9" x1="54.2" y1="118.7" x2="63.5" y2="108.3"/>
	<line class="st9" x1="88.8" y1="118.7" x2="79.4" y2="108"/>
</g>
<g id="CALCIO">
	<circle class="st10" cx="71.1" cy="71.1" r="68.1"/>
	<polygon class="st11" points="119.7,117.2 103.3,87.1 124,68.5 137.4,77.8 135.8,87.1 132.6,97.1 127.2,107.4 	"/>
	<path class="st12" d="M92.7,135.7"/>
	<line class="st13" x1="90.5" y1="38.6" x2="77.1" y2="54.7"/>
	<line class="st13" x1="38.7" y1="40.9" x2="49" y2="54.7"/>
	<line class="st13" x1="24.9" y1="88.9" x2="40.5" y2="81.2"/>
	<line class="st13" x1="65.2" y1="118.2" x2="63" y2="98.4"/>
	<line class="st13" x1="51.2" y1="17.9" x2="90.5" y2="17.9"/>
	<line class="st13" x1="83.9" y1="130.1" x2="115.3" y2="106.3"/>
	<line class="st13" x1="112.9" y1="38.6" x2="124" y2="68.5"/>
	<line class="st13" x1="83.9" y1="81.2" x2="104.8" y2="87.1"/>
	<polygon class="st11" points="91.8,133.6 65.2,116.7 46.5,133.1 55.6,135.9 60.1,136.8 63.8,137.3 68.2,137.6 71.1,137.7 
		75.9,137.5 79.1,137.2 83.9,136.5 86.8,135.9 89.6,135.1 91.1,134.6 	"/>
	<polygon class="st11" points="26.5,88.9 17.1,110.5 13,103.9 9.2,96 6.9,88.9 4.9,81.2 5.9,70.1 	"/>
	<polygon class="st11" points="40.2,40.9 13.6,37 16.7,32.3 20.6,27.2 25.6,21.9 30.7,17.4 36.3,13.5 43.6,9.5 46.4,8.2 52.7,17.9 	
		"/>
	<polygon class="st11" points="49,54.7 40.5,81.2 63,98.4 81,84.1 83.9,81.2 77.1,54.7 	"/>
	<polygon class="st11" points="85.3,5.7 89,38.6 113.8,40.9 124,30.1 119.3,24.6 115.2,20.5 111.6,17.5 106,13.5 104,12.3 95.8,8.2 
			"/>
</g>
<g id="TENNIS" class="st0">
	<path class="st6" d="M136.3,70.8c0,36.3-29.5,65.8-65.8,65.8S4.7,107.1,4.7,70.8S34.1,5,70.5,5c33.3,0,60.8,24.7,65.2,56.7
		C136.1,64.7,136.3,67.7,136.3,70.8z"/>
	<polyline class="st6" points="135.7,61.7 124.1,61.7 118.5,63.4 113.2,67.1 109.8,70.8 107.8,75.3 105.3,82.1 102.9,87.9 
		101.5,92.1 99.2,96.5 95.3,99.9 90.9,103 86.3,105.1 80.4,106.7 74.5,107.3 67.3,107.3 60.8,106.1 55.5,103.5 50.4,100.5 
		45.8,96.8 42,93 38.8,88.9 36.8,84.5 35.2,78 34.5,73.9 34.5,68.6 34.5,62.8 34.5,58.4 35.8,54.2 38,49.9 41.3,46.4 45.1,43 
		49.1,40.2 54.2,37.5 58.8,35.5 63.6,33 67.6,29.9 71.7,26.6 76.1,22.4 78.6,18.1 79.2,13.5 79.4,10 79.5,5.6 	"/>
</g>
<g id="NFL" class="st0">
	<path class="st7" d="M133.4,3.6c0,0,46.4,136.5-127,133.8"/>
	<path class="st7" d="M8.2,138.6c0,0-46.4-136.6,127-133.8"/>
	<path class="st8" d="M5.7,78.4c0,0,11.3,37.6,52.6,54"/>
	<line class="st9" x1="134.2" y1="4.1" x2="113.8" y2="27.1"/>
	<line class="st9" x1="9.1" y1="136.8" x2="28.5" y2="112.4"/>
	<line class="st9" x1="43.6" y1="95.1" x2="95.4" y2="43.6"/>
	<path class="st14" d="M58.2,95.1c0,0-5.8-10.6-14.7-13"/>
	<path class="st14" d="M70.2,83.5c0,0-5.8-10.6-14.7-13"/>
	<path class="st14" d="M81.8,71.9c0,0-5.8-10.6-14.7-13"/>
	<path class="st14" d="M93.7,59.6c0,0-5.8-10.6-14.7-13"/>
	<path class="st8" d="M137.3,62.6c0,0-11.4-37.6-52.7-53.8"/>
</g>
<g id="BASKET" class="st0">
	<circle class="st6" cx="70.5" cy="71.3" r="66.7"/>
	<line class="st15" x1="22.8" y1="117.8" x2="117" y2="23.5"/>
	<line class="st15" x1="24" y1="23.5" x2="118.3" y2="117.8"/>
	<path class="st15" d="M4,75.4c0,0,69.3-3.7,72.3-70.6"/>
	<path class="st15" d="M135.6,63.3c0,0-69.3,7.5-72.1,74.3"/>
</g>
<g id="CALENDARIO" class="st0">
	<polygon class="st16" points="46.9,28.9 46.8,38.5 47,39.4 47.4,40.3 47.9,41 48.5,41.7 49.1,42.2 49.9,42.6 50.8,42.9 51.6,43 
		52.3,43 52.9,42.9 53.5,42.8 54,42.6 54.6,42.3 55.1,41.9 55.5,41.6 55.9,41.1 56.2,40.7 56.5,40.2 56.7,39.6 56.9,39.1 57,38.6 
		57,38.2 57,29.1 56.9,28.4 56.8,28 56.6,27.6 56.4,27.1 56.2,26.7 55.9,26.4 55.6,26 55.3,25.7 55,25.5 54.7,25.3 54.3,25 
		53.9,24.8 53.5,24.7 53,24.6 52.5,24.5 51.6,24.5 50.9,24.6 50.4,24.7 49.8,24.9 49.3,25.1 49,25.4 48.5,25.8 48,26.2 47.7,26.7 
		47.4,27.2 47.1,27.8 47,28.3 	"/>
	<polygon class="st16" points="86.4,28.9 86.3,38.4 86.5,39.4 86.9,40.3 87.3,41 88,41.7 88.6,42.1 89.4,42.6 90.3,42.8 91.1,43 
		91.8,43 92.4,42.9 93,42.7 93.5,42.5 94.1,42.2 94.6,41.9 95,41.5 95.4,41 95.7,40.6 96,40.1 96.2,39.6 96.4,39 96.5,38.5 
		96.5,38.2 96.5,29 96.4,28.4 96.3,27.9 96.1,27.5 95.9,27.1 95.7,26.7 95.4,26.3 95.1,26 94.8,25.7 94.5,25.4 94.2,25.2 93.8,25 
		93.4,24.8 93,24.7 92.5,24.5 91.9,24.5 91.1,24.5 90.4,24.5 89.9,24.7 89.3,24.9 88.8,25.1 88.5,25.4 88,25.7 87.5,26.2 87.2,26.7 
		86.9,27.2 86.6,27.8 86.5,28.2 	"/>
	<polygon class="st16" points="30.1,42.2 30.2,41.4 30.4,40.6 30.7,39.7 31,39 31.5,38.1 32.1,37.4 33,36.6 33.7,36 34.6,35.5 
		35.6,35.1 36.4,34.9 37.3,34.7 38.3,34.7 44.7,34.7 44.7,38.4 44.8,39.2 45,40.2 45.4,41.1 46,42.2 46.6,42.9 47.4,43.6 48.2,44.2 
		49.2,44.7 50.3,45 51.2,45.2 52.5,45.2 53.6,45 54.6,44.7 55.8,44.1 56.6,43.5 57.3,42.8 57.9,42 58.4,41.2 58.8,40.3 59.1,39.4 
		59.2,38.2 59.2,34.7 84.1,34.6 84.1,38.4 84.2,39.2 84.4,39.9 84.7,40.8 85.2,41.7 85.9,42.6 86.5,43.4 87.4,44 88.3,44.5 
		89.3,44.9 90.3,45.2 90.9,45.3 92.1,45.3 92.9,45.1 93.9,44.8 95,44.3 96,43.6 96.8,42.8 97.5,42 97.9,41.1 98.3,40.2 98.6,39.4 
		98.7,38.5 98.7,34.6 105.5,34.6 106.7,34.8 107.9,35.2 109,35.7 110,36.3 110.9,37.2 111.7,38 112.3,39 112.7,40 113,41.1 
		113.2,41.9 113.3,42.8 113.3,106.5 113.1,107.5 112.9,108.5 112.5,109.5 111.9,110.5 111.3,111.4 110.5,112.2 109.6,112.8 
		108.7,113.3 108.2,113.6 107.6,113.8 107.2,114 106.7,114.1 106.3,114.1 104.7,114.2 38.6,114.2 37.8,114.2 37.6,114.2 37,114.2 
		36.4,114 35.8,113.8 35.1,113.6 34.5,113.3 33.8,112.9 33.3,112.6 32.7,112.1 32.2,111.6 31.7,111 31.2,110.2 30.7,109.3 
		30.4,108.5 30.2,107.4 30.1,106.8 	"/>
	<rect x="36.6" y="51.2" class="st17" width="70" height="56.1"/>
	<rect x="43.2" y="61.6" class="st16" width="14.6" height="10.1"/>
	<rect x="64.3" y="61.6" class="st16" width="14.6" height="10.1"/>
	<rect x="85.5" y="61.6" class="st16" width="14.6" height="10.1"/>
	<rect x="85.5" y="76.3" class="st16" width="14.6" height="10.1"/>
	<rect x="64.3" y="76.3" class="st16" width="14.6" height="10.1"/>
	<rect x="43.2" y="76.3" class="st16" width="14.6" height="10.1"/>
	<rect x="43.2" y="91.3" class="st16" width="14.6" height="10.1"/>
	<rect x="64.3" y="91.3" class="st16" width="14.6" height="10.1"/>
	<rect x="85.5" y="91.3" class="st16" width="14.6" height="10.1"/>
</g>
<g id="ACCOUNT" class="st0">
	<circle class="st18" cx="71" cy="69.2" r="45.6"/>
	<circle class="st19" cx="71.5" cy="56.2" r="17.5"/>
	<path class="st19" d="M40.5,103.2c0,0,29.4-64.6,61,0"/>
</g>
</svg>
